<svg width="64" height="64" viewBox="0 0 64 64" fill="none" xmlns="http://www.w3.org/2000/svg">
<path d="M58.4948 32.8075C58.4948 46.6598 46.526 57.8967 31.748 57.8967" stroke="#DCA5A4" stroke-width="1.61449" stroke-miterlimit="10" stroke-dasharray="5.38 5.38"/>
<path d="M31.7479 57.8968C26.5363 57.897 21.4381 56.3747 17.0799 53.5168C12.7217 50.659 9.29338 46.5901 7.21622 41.8103C5.13905 37.0305 4.50356 31.748 5.38783 26.6119C6.2721 21.4758 8.63761 16.71 12.1937 12.9C15.7497 9.09006 20.3414 6.40201 25.4044 5.16618C30.4674 3.93036 35.7811 4.20061 40.6926 5.94372C45.6041 7.68683 49.8994 10.8269 53.0505 14.9779C56.2017 19.129 58.0715 24.1103 58.4301 29.3095" stroke="#63666F" stroke-width="1.61449" stroke-miterlimit="10"/>
<path d="M55.502 26.2311L58.3758 28.8358L60.9697 25.962L61.0881 28.2761L58.4941 31.1499L55.6203 28.556L55.502 26.2311Z" fill="#63666F"/>
<path opacity="0.68" d="M32.1473 30.9025C31.912 30.8217 31.6639 30.7852 31.4154 30.7948C31.1884 30.7924 30.9627 30.8288 30.748 30.9025V15.92H32.1473V30.9025Z" fill="#63666F"/>
<path opacity="0.68" d="M33.7383 33.9054C33.8223 33.7275 33.8593 33.5312 33.8459 33.3349C33.839 33.1684 33.8025 33.0044 33.7383 32.8506H45.0397V33.9269L33.7383 33.9054Z" fill="#63666F"/>
<path d="M33.416 33.3133C33.416 32.9216 33.2998 32.5387 33.0822 32.2131C32.8646 31.8874 32.5553 31.6335 32.1934 31.4836C31.8315 31.3337 31.4333 31.2945 31.0492 31.3709C30.665 31.4474 30.3121 31.636 30.0351 31.9129C29.7582 32.1899 29.5695 32.5428 29.4931 32.927C29.4167 33.3111 29.4559 33.7093 29.6058 34.0712C29.7557 34.4331 30.0096 34.7424 30.3352 34.96C30.6609 35.1776 31.0438 35.2938 31.4355 35.2938C31.9599 35.2909 32.462 35.0814 32.8328 34.7106C33.2036 34.3398 33.4131 33.8377 33.416 33.3133Z" fill="#DCA5A4"/>
<path d="M30.7468 15.6616L29.3906 10.8289C30.75 11.1547 32.1804 10.9988 33.4376 10.3876L32.1676 15.6616H30.7468Z" fill="#DCA5A4"/>
<path d="M45.2441 32.8399L49.4956 31.8281C49.3496 32.3283 49.3087 32.8533 49.3754 33.3701C49.4421 33.8869 49.6149 34.3843 49.8831 34.8311L45.2441 33.8947V32.8399Z" fill="#DCA5A4"/>
</svg>
