<svg width="64" height="64" viewBox="0 0 64 64" fill="none" xmlns="http://www.w3.org/2000/svg">
<path d="M14.3482 31.6501C13.8744 32.5882 13.121 33.3561 12.192 33.8477C11.2631 34.3393 10.2044 34.5303 9.16217 34.3943C8.11997 34.2583 7.14571 33.8021 6.37395 33.0887C5.60218 32.3752 5.07099 31.4397 4.85374 30.4114C4.63648 29.3831 4.74389 28.3126 5.16113 27.348C5.57836 26.3833 6.28484 25.572 7.18297 25.0261C8.08111 24.4802 9.12659 24.2267 10.175 24.3005C11.2234 24.3743 12.2231 24.7718 13.0359 25.4382" stroke="#A8A2A2" stroke-width="1.64046" stroke-miterlimit="10"/>
<path d="M2.55859 42.5318C2.55859 39.1962 5.83952 36.4949 9.86412 36.4949C11.512 36.4863 13.1254 36.9657 14.5012 37.8729" stroke="#A8A2A2" stroke-width="1.64046" stroke-miterlimit="10"/>
<path d="M50.4386 25.8318C51.1792 25.0558 52.1472 24.5351 53.2029 24.3447C54.2586 24.1544 55.3474 24.3042 56.3125 24.7726C57.2775 25.241 58.0689 26.0037 58.5725 26.9509C59.076 27.8981 59.2658 28.9807 59.1144 30.0427C58.9629 31.1047 58.4782 32.0911 57.7299 32.8598C56.9817 33.6285 56.0087 34.1397 54.9512 34.3197C53.8937 34.4997 52.8063 34.3392 51.8459 33.8613C50.8855 33.3835 50.1017 32.613 49.6074 31.6609" stroke="#A8A2A2" stroke-width="1.64046" stroke-miterlimit="10"/>
<path d="M48.7441 38.4635C50.2394 37.1688 52.1581 36.4683 54.1358 36.4949C58.1713 36.4949 61.4413 39.1962 61.4413 42.5318" stroke="#A8A2A2" stroke-width="1.64046" stroke-miterlimit="10"/>
<path d="M19.7954 34.2529C23.667 34.2529 26.8056 31.1143 26.8056 27.2427C26.8056 23.371 23.667 20.2324 19.7954 20.2324C15.9237 20.2324 12.7852 23.371 12.7852 27.2427C12.7852 31.1143 15.9237 34.2529 19.7954 34.2529Z" stroke="#DCA5A4" stroke-width="1.64046" stroke-miterlimit="10"/>
<path d="M9.73438 45.0581C9.73438 40.4648 14.2511 36.7355 19.8287 36.7355C25.4063 36.7355 29.9121 40.4648 29.9121 45.0581" stroke="#DCA5A4" stroke-width="1.64046" stroke-miterlimit="10"/>
<path d="M43.7134 34.8871C47.585 34.8871 50.7236 31.7485 50.7236 27.8769C50.7236 24.0052 47.585 20.8666 43.7134 20.8666C39.8417 20.8666 36.7031 24.0052 36.7031 27.8769C36.7031 31.7485 39.8417 34.8871 43.7134 34.8871Z" stroke="#DCA5A4" stroke-width="1.64046" stroke-miterlimit="10"/>
<path d="M33.6504 45.6925C33.6504 41.0992 38.1671 37.3699 43.7338 37.3699C49.3004 37.3699 53.8718 41.0992 53.8718 45.6925" stroke="#DCA5A4" stroke-width="1.64046" stroke-miterlimit="10"/>
<path d="M31.7479 35.6199C37.1778 35.6199 41.5797 31.2279 41.5797 25.81C41.5797 20.3921 37.1778 16 31.7479 16C26.3179 16 21.916 20.3921 21.916 25.81C21.916 31.2279 26.3179 35.6199 31.7479 35.6199Z" fill="#63666F"/>
<path d="M17.6289 48C17.6289 41.5804 23.972 36.3746 31.7806 36.3746C39.5892 36.3746 45.9323 41.5804 45.9323 48" fill="#63666F"/>
</svg>
