<svg width="64" height="64" viewBox="0 0 64 64" fill="none" xmlns="http://www.w3.org/2000/svg">
<path d="M45.0113 36.7162C45.0435 38.6454 44.6687 40.5597 43.9115 42.3344C43.1543 44.1091 42.0317 45.7043 40.6167 47.016C38.4711 49.0405 35.7337 50.3249 32.8054 50.6811C29.877 51.0374 26.9115 50.4468 24.343 48.9959C21.2688 47.2957 18.963 44.4821 17.9 41.1337C17.2623 39.0883 17.0826 36.9277 17.3735 34.805C17.891 31.0631 19.1726 27.4676 21.1387 24.242C23.2993 20.6364 25.7936 17.2417 28.5889 14.1024C29.2641 13.3013 29.9622 12.5002 30.6488 11.7106C31.0265 11.2757 31.2325 11.2643 31.5987 11.7106C34.7711 15.1837 37.6677 18.8991 40.262 22.8229C42.3032 25.9255 43.7758 29.3667 44.6108 32.9854C44.8575 34.2142 44.9916 35.463 45.0113 36.7162V36.7162ZM31.1295 12.5231C29.9851 13.7934 28.9436 15.018 27.9136 16.2883C25.8134 18.7913 23.9008 21.4459 22.1915 24.2306C20.1883 27.4133 18.8601 30.9735 18.2891 34.6906C17.9545 36.6795 18.0852 38.7189 18.6709 40.6489C19.2567 42.5789 20.2815 44.3469 21.6651 45.8144C23.806 48.1844 26.7772 49.6392 29.9622 49.8771C31.7728 50.0388 33.5972 49.8191 35.3176 49.232C37.038 48.6449 38.6161 47.7036 39.9502 46.4688C41.2842 45.234 42.3444 43.7331 43.0625 42.0631C43.7805 40.3931 44.1403 38.5911 44.1187 36.7734C44.0477 33.7278 43.3422 30.7304 42.0473 27.9728C40.5492 24.7396 38.6705 21.6968 36.451 18.909C34.7687 16.7232 32.972 14.6289 31.1295 12.5231Z" fill="#63666F"/>
<path d="M30.9684 44.2465C28.9569 44.1407 27.0591 43.2812 25.653 41.839C24.2469 40.3968 23.4356 38.4779 23.3809 36.4644C23.3809 36.1783 23.3809 35.8807 23.77 35.8464C24.1591 35.8121 24.2621 36.0638 24.2735 36.3957C24.2869 37.4378 24.5374 38.4632 25.0059 39.3941C25.5463 40.5171 26.3761 41.4759 27.41 42.1719C28.4438 42.8678 29.6444 43.2758 30.8883 43.3538H31.3346C31.3974 43.347 31.4609 43.3541 31.5208 43.3743C31.5806 43.3946 31.6353 43.4277 31.681 43.4713C31.7268 43.5148 31.7625 43.5679 31.7857 43.6266C31.8088 43.6854 31.8189 43.7485 31.8153 43.8116C31.8153 44.132 31.5635 44.235 31.2659 44.235L30.9684 44.2465Z" fill="#63666F"/>
<path d="M31.2204 58.3001C45.6626 58.3001 57.3704 46.5923 57.3704 32.1501C57.3704 17.7078 45.6626 6 31.2204 6C16.7781 6 5.07031 17.7078 5.07031 32.1501C5.07031 46.5923 16.7781 58.3001 31.2204 58.3001Z" stroke="#DCA5A4" stroke-width="1.71663" stroke-miterlimit="10"/>
<path d="M13.5273 14.2856L15.4957 16.3455" stroke="#DCA5A4" stroke-width="1.71663" stroke-miterlimit="10" stroke-linecap="round"/>
<path d="M19.959 21.0034L44.484 46.6385" stroke="#DCA5A4" stroke-width="1.71663" stroke-miterlimit="10" stroke-linecap="round" stroke-dasharray="6.45 6.45"/>
<path d="M46.7148 48.9615L48.6947 51.033" stroke="#DCA5A4" stroke-width="1.71663" stroke-miterlimit="10" stroke-linecap="round"/>
</svg>
